<svg width="40" height="41" viewBox="0 0 40 41" fill="none" xmlns="http://www.w3.org/2000/svg">
<rect y="0.103516" width="40" height="40" rx="8" fill="#EBEDEF"/>
<path d="M14.9292 18.1231L14.9295 18.1234C15.0698 18.2625 15.2528 18.3325 15.4341 18.3325C15.6183 18.3325 15.7994 18.2625 15.9396 18.1234L15.9398 18.1233C16.2193 17.8448 16.2191 17.3906 15.9399 17.1114C15.768 16.9395 15.712 16.7034 15.752 16.3554C15.7924 16.0039 15.9277 15.564 16.1108 15.0092C16.304 14.4344 16.5166 13.801 16.555 13.1879C16.5938 12.5686 16.4556 11.9604 15.9419 11.4462L15.9418 11.4462C15.6622 11.1665 15.2063 11.1692 14.9284 11.446L14.9284 11.446L14.9282 11.4462C14.649 11.7254 14.649 12.1795 14.9282 12.4588C15.1008 12.6314 15.1573 12.8674 15.1175 13.2146C15.0772 13.5655 14.9415 14.0047 14.7564 14.559L14.7564 14.5591L14.7539 14.5665C14.5628 15.1408 14.3528 15.7717 14.3152 16.382C14.277 17.0013 14.4155 17.6089 14.9292 18.1231Z" fill="#AFAFAF" stroke="#AFAFAF" stroke-width="0.24"/>
<path d="M19.0515 9.26215L19.0513 9.26198C18.7621 8.97285 18.7621 8.50367 19.0513 8.21453C19.3404 7.92541 19.8086 7.92539 20.0977 8.21449L19.0515 9.26215ZM19.0515 9.26215C19.1481 9.35841 19.2151 9.53519 19.2454 9.79634C19.2751 10.0533 19.267 10.371 19.2333 10.7257C19.1658 11.4349 18.9985 12.2697 18.8477 13.021L18.8476 13.0213M19.0515 9.26215L18.8476 13.0213M18.8476 13.0213L18.8418 13.0509C18.6398 14.0699 18.4409 15.0736 18.4135 15.9448C18.3859 16.8224 18.5309 17.5963 19.0531 18.1187C19.197 18.2637 19.389 18.3358 19.576 18.3358M18.8476 13.0213L19.576 18.3358M19.576 18.3358C19.7661 18.3358 19.9552 18.2636 20.0981 18.1186M19.576 18.3358L20.0981 18.1186M20.0981 18.1186C20.3869 17.8294 20.3868 17.3605 20.0977 17.0714L20.0129 17.1563C19.5108 16.6523 19.8833 14.7889 20.183 13.2892L20.1837 13.2859M20.0981 18.1186L20.0979 17.0716C20.0015 16.9748 19.9347 16.7975 19.9047 16.536C19.8751 16.2787 19.8832 15.9608 19.9169 15.6059C19.9842 14.8962 20.1511 14.0612 20.3014 13.3094M20.1837 13.2859L20.3013 13.3095C20.3013 13.3094 20.3013 13.3094 20.3014 13.3094M20.1837 13.2859C20.5977 11.2206 20.987 9.27146 20.0129 8.29938L20.3014 13.3094M20.1837 13.2859L20.3014 13.3094" fill="#AFAFAF" stroke="#AFAFAF" stroke-width="0.24"/>
<path d="M22.7589 18.1251L22.7586 18.1248C22.2444 17.6106 22.1057 17.003 22.1437 16.3836C22.1813 15.7735 22.391 15.1427 22.582 14.5682L22.5848 14.5598L22.5848 14.5598C22.7694 14.0055 22.905 13.5663 22.9451 13.2154C22.9848 12.8681 22.9283 12.6321 22.7557 12.4595C22.4765 12.1802 22.4765 11.7261 22.7557 11.4469C23.0349 11.1677 23.49 11.1675 23.7685 11.447M22.7589 18.1251L23.6835 11.5317M22.7589 18.1251C22.8991 18.2641 23.0812 18.3342 23.2635 18.3342C23.4476 18.3342 23.629 18.2642 23.7684 18.1248C24.0476 17.8455 24.0476 17.3924 23.7685 17.1132M22.7589 18.1251L23.7685 17.1132M23.7685 11.447C23.7685 11.447 23.7685 11.447 23.7686 11.447L23.6835 11.5317M23.7685 11.447C23.7685 11.4469 23.7684 11.4469 23.7684 11.4469L23.6835 11.5317M23.7685 11.447C24.2826 11.9616 24.4211 12.5697 24.3826 13.1891C24.3447 13.8006 24.1335 14.4325 23.9417 15.0066L23.9403 15.0106M23.6835 11.5317C24.6512 12.5004 24.2131 13.8157 23.8264 14.973M23.9403 15.0106L23.8264 14.973M23.9403 15.0106C23.7571 15.5655 23.6215 16.0053 23.5809 16.3567C23.5407 16.7047 23.5965 16.9408 23.7685 17.1132M23.9403 15.0106L23.9402 15.011L23.8264 14.973M23.8264 14.973L23.7685 17.1132" fill="#AFAFAF" stroke="#AFAFAF" stroke-width="0.24"/>
<path d="M31.5122 15.4546C31.3143 15.2567 30.993 15.2567 30.795 15.4546L25.3669 20.8828H8.84469C8.56399 20.8828 8.33765 21.2105 8.33765 21.4912C8.33765 25.0275 11.7247 29.8067 16.2677 32.2405H15.9432C15.6625 32.2405 15.4362 32.3654 15.4362 32.6461C15.4362 32.9268 15.6625 33.0517 15.9432 33.0517H23.0418C23.3225 33.0517 23.5488 32.8254 23.5488 32.5447C23.5488 32.29 23.3574 32.0871 23.1099 32.0523C27.6692 30.1742 31.0709 24.9367 31.0709 21.3898C31.0709 21.1091 30.8453 20.8828 30.5638 20.8828H26.8012L31.5138 16.1701C31.711 15.9722 31.711 15.6526 31.5122 15.4546Z" fill="#AFAFAF"/>
<rect x="30.8472" y="14.7598" width="1.94684" height="14.1914" rx="0.973422" transform="rotate(44.2865 30.8472 14.7598)" fill="#AFAFAF"/>
</svg>
